<svg width="759" height="321" viewBox="0 0 759 321" fill="none" xmlns="http://www.w3.org/2000/svg">
<path opacity="0.1" d="M136.563 314V263.187H0.35V215.149L98.7735 6.55999H157.486L59.0625 215.149H136.563V135.087H188.657V215.149H217.48V263.187H188.657V314H136.563ZM379.269 320.405C357.492 320.405 338.277 315.779 321.624 306.527C304.971 297.133 291.948 284.11 282.554 267.457C273.302 250.804 268.676 231.589 268.676 209.812V110.748C268.676 88.971 273.302 69.756 282.554 53.103C291.948 36.45 304.971 23.4976 321.624 14.246C338.277 4.85199 357.492 0.154994 379.269 0.154994C401.046 0.154994 420.19 4.85199 436.701 14.246C453.354 23.4976 466.377 36.45 475.771 53.103C485.165 69.756 489.862 88.971 489.862 110.748V209.812C489.862 231.589 485.165 250.804 475.771 267.457C466.377 284.11 453.354 297.133 436.701 306.527C420.19 315.779 401.046 320.405 379.269 320.405ZM379.269 271.513C390.086 271.513 399.907 268.951 408.732 263.827C417.557 258.561 424.531 251.587 429.655 242.904C434.779 234.08 437.341 224.259 437.341 213.441V106.905C437.341 95.9453 434.779 86.1243 429.655 77.442C424.531 68.6173 417.557 61.643 408.732 56.519C399.907 51.2527 390.086 48.6195 379.269 48.6195C368.452 48.6195 358.631 51.2527 349.806 56.519C340.981 61.643 334.007 68.6173 328.883 77.442C323.759 86.1243 321.197 95.9453 321.197 106.905V213.441C321.197 224.259 323.759 234.08 328.883 242.904C334.007 251.587 340.981 258.561 349.806 263.827C358.631 268.951 368.452 271.513 379.269 271.513ZM677.402 314V263.187H541.189V215.149L639.612 6.55999H698.325L599.901 215.149H677.402V135.087H729.496V215.149H758.318V263.187H729.496V314H677.402Z" fill="#454545"/>
</svg>
